<?xml version="1.0" standalone="no"?><!DOCTYPE svg PUBLIC "-//W3C//DTD SVG 1.1//EN" "http://www.w3.org/Graphics/SVG/1.1/DTD/svg11.dtd"><svg t="1714307124819" class="icon" viewBox="0 0 1024 1024" version="1.1" xmlns="http://www.w3.org/2000/svg" p-id="3472" xmlns:xlink="http://www.w3.org/1999/xlink" width="200" height="200"><path d="M752 176V64c0-35.3-28.7-64-64-64H144c-35.3 0-64 28.7-64 64v704c0 35.3 28.7 64 64 64h112c8.8 0 16 7.2 16 16v112c0 35.3 28.7 64 64 64h544c35.3 0 64-28.7 64-64V256c0-35.3-28.7-64-64-64H768c-8.8 0-16-7.2-16-16zM256 768h-96c-8.8 0-16-7.2-16-16V80c0-8.8 7.2-16 16-16h512c8.8 0 16 7.2 16 16v96c0 8.8-7.2 16-16 16H336c-35.3 0-64 28.7-64 64v496c0 8.8-7.2 16-16 16z m608 192H352c-8.8 0-16-7.2-16-16V272c0-8.8 7.2-16 16-16h512c8.8 0 16 7.2 16 16v672c0 8.8-7.2 16-16 16z" p-id="3473" fill="#ffffff"></path><path d="M704 352H512c-17.7 0-32-14.3-32-32s14.3-32 32-32h192c17.7 0 32 14.3 32 32s-14.3 32-32 32z" p-id="3474" fill="#ffffff"></path></svg>