<?xml version="1.0" standalone="no"?><!DOCTYPE svg PUBLIC "-//W3C//DTD SVG 1.1//EN" "http://www.w3.org/Graphics/SVG/1.1/DTD/svg11.dtd"><svg t="1714609275926" class="icon" viewBox="0 0 1024 1024" version="1.1" xmlns="http://www.w3.org/2000/svg" p-id="2884" xmlns:xlink="http://www.w3.org/1999/xlink" width="200" height="200"><path d="M805.89 70.41l-644.68 768.3c-5.84 6.96-4.91 17.55 2.04 23.39l111.57 93.62c6.96 5.84 17.31 4.71 23.15-2.25l644.68-768.3c5.84-6.96 5.15-17.35-1.8-23.19L829.28 68.36c-6.96-5.84-17.55-4.91-23.39 2.05z m94.61 105.56l-189.05 225.3-78.22-65.64 189.05-225.31 78.22 65.65zM325.65 166.53l26.32 85.33 85.33 26.32-85.33 26.31-26.32 85.34-26.31-85.34-85.33-26.31 85.33-26.32zM551.99 110.33l12.05 39.1 39.1 12.06-39.1 12.06-12.05 39.1-12.06-39.1-39.1-12.06 39.1-12.06zM114.8 95.67l12.06 39.1 39.1 12.06-39.1 12.05-12.06 39.1-12.05-39.1-39.1-12.05 39.1-12.06zM909.2 360.91l12.05 39.1 39.1 12.06-39.1 12.06-12.05 39.1-12.06-39.1-39.1-12.06 39.1-12.06z" fill="#ffffff" p-id="2885"></path></svg>