<?xml version="1.0" standalone="no"?><!DOCTYPE svg PUBLIC "-//W3C//DTD SVG 1.1//EN" "http://www.w3.org/Graphics/SVG/1.1/DTD/svg11.dtd"><svg t="1714306420430" class="icon" viewBox="0 0 1024 1024" version="1.1" xmlns="http://www.w3.org/2000/svg" p-id="2451" xmlns:xlink="http://www.w3.org/1999/xlink" width="200" height="200"><path d="M1017.9 501.7L849.2 365c-8.6-7-21.5-0.9-21.5 10.3v94.5H554.2V196.4h94.5c11.1 0 17.3-12.9 10.3-21.5L522.3 6.1c-5.3-6.5-15.2-6.5-20.5 0L365 174.8c-7 8.6-0.9 21.5 10.3 21.5h94.5v273.4H196.4v-94.5c0-11.1-12.9-17.3-21.6-10.3L6.1 501.7c-6.5 5.3-6.5 15.2 0 20.5L174.8 659c8.6 7 21.6 0.9 21.6-10.3v-94.5h273.4v273.4h-94.5c-11.1 0-17.3 12.9-10.3 21.5l136.8 168.7c5.3 6.5 15.2 6.5 20.5 0L659 849.2c7-8.6 0.8-21.5-10.3-21.5h-94.5V554.2h273.4v94.5c0 11.1 12.9 17.3 21.5 10.3l168.7-136.8c6.6-5.2 6.6-15.2 0.1-20.5z" fill="#ffffff" p-id="2452"></path></svg>